<svg xmlns="http://www.w3.org/2000/svg" viewBox="-4 -2 48 50" width="64" height="64">
  <rect x="-4" y="-2" width="48" height="50" rx="10" fill="#3d2208"/>
  <path d="M36.0566 38.3597C32.6716 42.0727 28.088 44.3554 23.0363 44.3554C12.6139 44.3554 4.16176 34.636 4.16176 22.6499C4.16176 10.6585 11.8834 0.992992 22.3058 0.992992C25.7165 0.992992 28.8185 2.04535 31.0306 4.34434C32.7076 6.09827 31.509 8.45662 32.4916 9.92992C34.0606 12.2991 37.034 11.754 38.0011 10.7448C39.6062 9.06105 38.8294 6.83761 37.5021 5.47765C33.6388 1.52187 28.1755 0 22.4035 0C9.63018 0 0 10.0864 0 22.596C0 35.1055 10.3607 45.2459 23.134 45.2459C28.8494 45.2459 34.0812 43.2167 38.1195 39.8492C38.6493 39.4067 38.9837 38.2788 38.3407 37.7499C37.4404 36.9944 36.427 37.9496 36.0566 38.3597Z" fill="white"/>
  <path d="M23.8028 37.4152C23.8028 37.14 23.5867 37.0266 23.1289 37.0266C21.6525 36.9673 19.6719 36.5787 18.7408 35.0299C17.1666 32.4179 18.6019 30.7665 18.1132 28.8884C17.6245 27.005 15.5101 25.9418 13.5707 27.237C11.2815 28.7643 12.9586 33.1734 15.9526 35.3806C17.1255 36.2441 19.1523 37.1777 21.4467 37.6311C22.1412 37.766 22.7328 37.8037 23.2318 37.7876C23.6588 37.793 23.8028 37.6634 23.8028 37.4152Z" fill="white"/>
  <path d="M34.2355 22.1264C31.4267 19.3201 25.2535 17.5824 21.1895 16.2979C18.2212 15.278 16.9145 13.4701 16.9248 11.3114C16.9403 7.96544 19.5536 7.10737 20.9889 6.70801C21.5753 6.54071 21.493 6.22231 21.4107 6.06041C21.3027 5.83375 21.0763 5.72042 20.639 5.83375C18.9363 6.29786 17.6296 6.91309 16.2972 7.96004C13.0666 10.5073 11.6056 18.7211 20.4281 21.495C20.7676 21.6083 26.6167 23.7292 28.2115 24.3174C31.1798 25.4184 33.86 26.9456 34.1532 30.8205C34.3744 33.7724 32.1829 35.3591 30.6602 36.0822C30.3567 36.2387 30.367 36.4384 30.475 36.5895C30.583 36.7514 30.8505 36.8324 31.2621 36.6327C32.2395 36.147 33.469 35.3321 34.7602 33.9343C37.641 30.8312 37.8159 25.699 34.2355 22.1264Z" fill="white"/>
</svg>
